<?xml version="1.0" encoding="utf-8"?>
<!-- Generator: Adobe Illustrator 16.0.0, SVG Export Plug-In . SVG Version: 6.00 Build 0)  -->
<!DOCTYPE svg PUBLIC "-//W3C//DTD SVG 1.1//EN" "http://www.w3.org/Graphics/SVG/1.1/DTD/svg11.dtd">
<svg version="1.1" id="Calque_1" xmlns="http://www.w3.org/2000/svg" xmlns:xlink="http://www.w3.org/1999/xlink" x="0px" y="0px"
	 width="1000px" height="227.963px" viewBox="0 0 1000 227.963" enable-background="new 0 0 1000 227.963" xml:space="preserve">
<g>
	<path fill="#BABABA" d="M85.537,152.895c-20.734,0-37.54,16.778-37.54,37.513c0,1.615,0.119,3.188,0.347,4.741
		c2.309,18.492,18.056,32.79,37.193,32.79c19.653,0,35.741-15.108,37.362-34.319c0.102-1.057,0.169-2.132,0.169-3.212
		C123.068,169.673,106.264,152.895,85.537,152.895L85.537,152.895z M66.712,176.281l7.668,7.634
		c-0.593,1.032-1.057,2.138-1.354,3.322H62.223C62.807,183.129,64.354,179.426,66.712,176.281L66.712,176.281z M62.199,193.717
		h10.88c0.295,1.161,0.733,2.261,1.351,3.273l-7.664,7.659C64.379,201.529,62.782,197.795,62.199,193.717L62.199,193.717z
		 M82.291,213.745c-4.075-0.565-7.76-2.162-10.886-4.521l7.615-7.646c1.014,0.596,2.113,1.008,3.271,1.327V213.745z M82.291,177.921
		c-1.182,0.319-2.281,0.786-3.313,1.4l-7.667-7.665c3.145-2.383,6.881-3.955,10.981-4.52V177.921z M88.776,167.137
		c4.105,0.564,7.833,2.137,10.978,4.52l-7.659,7.665c-1.038-0.614-2.137-1.081-3.319-1.4V167.137z M88.776,213.721v-10.815
		c1.155-0.319,2.263-0.731,3.27-1.327l7.641,7.646C96.542,211.583,92.857,213.18,88.776,213.721L88.776,213.721z M104.327,204.674
		l-7.689-7.684c0.59-1.013,1.081-2.088,1.4-3.273h10.788C108.233,197.795,106.709,201.554,104.327,204.674L104.327,204.674z
		 M98.038,187.237c-0.295-1.185-0.762-2.29-1.375-3.322l7.665-7.634c2.383,3.145,3.931,6.848,4.499,10.956H98.038z M98.038,187.237"
		/>
	<g>
		<path fill="#BABABA" d="M395.511,153.214c-20.66,0-37.39,16.729-37.39,37.358c0,1.598,0.146,3.169,0.344,4.717
			c2.309,18.406,17.982,32.674,37.046,32.674c19.555,0,35.571-15.028,37.193-34.19c0.099-1.057,0.172-2.119,0.172-3.2
			C432.876,169.943,416.147,153.214,395.511,153.214L395.511,153.214z M376.767,176.502l7.64,7.616
			c-0.59,1.031-1.057,2.137-1.351,3.285h-10.761C372.861,183.332,374.433,179.622,376.767,176.502L376.767,176.502z
			 M372.271,193.889h10.81c0.319,1.131,0.762,2.242,1.352,3.219l-7.641,7.671C374.458,201.658,372.836,197.918,372.271,193.889
			L372.271,193.889z M392.268,213.788c-4.053-0.56-7.738-2.132-10.834-4.49l7.592-7.591c1.007,0.56,2.088,1.008,3.242,1.303V213.788
			z M392.268,178.143c-1.179,0.319-2.284,0.768-3.292,1.375l-7.615-7.615c3.12-2.358,6.829-3.955,10.907-4.514V178.143z
			 M398.729,167.389c4.103,0.559,7.813,2.155,10.932,4.514l-7.615,7.615c-1.031-0.607-2.137-1.081-3.316-1.375V167.389z
			 M398.729,213.788V203.01c1.154-0.295,2.26-0.743,3.243-1.327l7.615,7.615C406.467,211.632,402.783,213.229,398.729,213.788
			L398.729,213.788z M414.231,204.778l-7.689-7.671c0.614-1.007,1.105-2.063,1.4-3.219h10.735
			C418.112,197.918,416.588,201.658,414.231,204.778L414.231,204.778z M407.966,187.403c-0.319-1.173-0.762-2.254-1.376-3.285
			l7.641-7.616c2.357,3.12,3.905,6.83,4.471,10.901H407.966z M407.966,187.403"/>
		<path fill="#BABABA" d="M499.844,164.508c-0.123-4.962-1.671-9.777-4.422-13.898l-2.039-2.997l-8.844-23.341
			c-1.646-4.397-5.725-7.466-10.416-7.861c-8.672-0.712-23.461-1.846-37.537-2.358c-49.28-26.163-140.396-52.477-217.661-23.805
			c-15.867,5.868-61.167,28.89-61.167,28.89s-73.548-1.843-126,16.85c-20.682,7.37-33.708,27.913-31.519,49.747
			c0.415,4.379,1.081,8.254,1.698,11.398c1.004,4.963,5.107,8.703,10.143,9.268l32.646,3.581c-2.061-4.3-3.507-8.942-4.124-13.88
			c-0.271-2.009-0.391-3.876-0.391-5.693c0-24.99,20.338-45.301,45.325-45.301c24.98,0,45.325,20.311,45.325,45.301
			c0,1.326-0.077,2.604-0.203,3.881c-0.464,5.596-2.011,10.901-4.37,15.771h226.649l1.817-0.129
			c-2.015-4.226-3.415-8.813-4.028-13.684c-0.271-2.014-0.394-3.881-0.394-5.675c0-24.886,20.268-45.152,45.153-45.152
			c24.91,0,45.177,20.242,45.177,45.152c0,1.303-0.073,2.58-0.196,3.857c-0.295,3.685-1.105,7.229-2.285,10.618l5.11-0.301
			l35.13-4.637c6.092-0.811,11.497-4.422,14.567-9.753l3.513-6.019c2.408-4.176,3.611-8.948,3.489-13.764L499.844,164.508z
			 M375.465,119.555H203.599c0,0,1.032-4.078-3.464-8.995c0,0,43.928-28.325,111.776-21.25c18.671,1.944,41.493,3.271,72.544,19.407
			L375.465,119.555z M375.465,119.555"/>
	</g>
</g>
<g>
	<path fill="#D90000" d="M585.536,152.895c-20.733,0-37.54,16.778-37.54,37.513c0,1.615,0.119,3.188,0.347,4.741
		c2.31,18.492,18.057,32.79,37.193,32.79c19.653,0,35.741-15.108,37.362-34.319c0.102-1.057,0.169-2.132,0.169-3.212
		C623.067,169.673,606.264,152.895,585.536,152.895L585.536,152.895z M566.712,176.281l7.668,7.634
		c-0.593,1.032-1.057,2.138-1.354,3.322h-10.803C562.807,183.129,564.354,179.426,566.712,176.281L566.712,176.281z
		 M562.198,193.717h10.88c0.295,1.161,0.733,2.261,1.351,3.273l-7.664,7.659C564.379,201.529,562.781,197.795,562.198,193.717
		L562.198,193.717z M582.29,213.745c-4.074-0.565-7.76-2.162-10.886-4.521l7.615-7.646c1.014,0.596,2.113,1.008,3.271,1.327V213.745
		z M582.29,177.921c-1.182,0.319-2.281,0.786-3.313,1.4l-7.667-7.665c3.145-2.383,6.881-3.955,10.98-4.52V177.921z M588.776,167.137
		c4.105,0.564,7.833,2.137,10.978,4.52l-7.658,7.665c-1.038-0.614-2.138-1.081-3.319-1.4V167.137z M588.776,213.721v-10.815
		c1.154-0.319,2.263-0.731,3.27-1.327l7.641,7.646C596.542,211.583,592.857,213.18,588.776,213.721L588.776,213.721z
		 M604.326,204.674l-7.689-7.684c0.59-1.013,1.081-2.088,1.4-3.273h10.788C608.232,197.795,606.709,201.554,604.326,204.674
		L604.326,204.674z M598.037,187.237c-0.295-1.185-0.762-2.29-1.375-3.322l7.664-7.634c2.383,3.145,3.931,6.848,4.499,10.956
		H598.037z M598.037,187.237"/>
	<g>
		<path fill="#D90000" d="M895.511,153.214c-20.66,0-37.39,16.729-37.39,37.358c0,1.598,0.146,3.169,0.344,4.717
			c2.309,18.406,17.982,32.674,37.046,32.674c19.555,0,35.571-15.028,37.193-34.19c0.099-1.057,0.172-2.119,0.172-3.2
			C932.876,169.943,916.146,153.214,895.511,153.214L895.511,153.214z M876.767,176.502l7.64,7.616
			c-0.59,1.031-1.057,2.137-1.351,3.285h-10.761C872.86,183.332,874.433,179.622,876.767,176.502L876.767,176.502z M872.271,193.889
			h10.81c0.319,1.131,0.762,2.242,1.352,3.219l-7.641,7.671C874.457,201.658,872.836,197.918,872.271,193.889L872.271,193.889z
			 M892.268,213.788c-4.053-0.56-7.738-2.132-10.834-4.49l7.592-7.591c1.007,0.56,2.088,1.008,3.242,1.303V213.788z
			 M892.268,178.143c-1.179,0.319-2.284,0.768-3.292,1.375l-7.615-7.615c3.12-2.358,6.829-3.955,10.907-4.514V178.143z
			 M898.729,167.389c4.103,0.559,7.813,2.155,10.932,4.514l-7.615,7.615c-1.031-0.607-2.137-1.081-3.316-1.375V167.389z
			 M898.729,213.788V203.01c1.154-0.295,2.26-0.743,3.243-1.327l7.615,7.615C906.467,211.632,902.782,213.229,898.729,213.788
			L898.729,213.788z M914.23,204.778l-7.689-7.671c0.614-1.007,1.105-2.063,1.4-3.219h10.735
			C918.111,197.918,916.588,201.658,914.23,204.778L914.23,204.778z M907.966,187.403c-0.319-1.173-0.762-2.254-1.376-3.285
			l7.641-7.616c2.357,3.12,3.905,6.83,4.471,10.901H907.966z M907.966,187.403"/>
		<path fill="#D90000" d="M999.844,164.508c-0.123-4.962-1.671-9.777-4.422-13.898l-2.039-2.997l-8.844-23.341
			c-1.646-4.397-5.725-7.466-10.416-7.861c-8.672-0.712-23.461-1.846-37.537-2.358c-49.28-26.163-140.396-52.477-217.661-23.805
			c-15.866,5.868-61.167,28.89-61.167,28.89s-73.548-1.843-126,16.85c-20.682,7.37-33.708,27.913-31.519,49.747
			c0.414,4.379,1.081,8.254,1.698,11.398c1.004,4.963,5.106,8.703,10.143,9.268l32.646,3.581c-2.061-4.3-3.507-8.942-4.124-13.88
			c-0.271-2.009-0.391-3.876-0.391-5.693c0-24.99,20.338-45.301,45.325-45.301c24.98,0,45.325,20.311,45.325,45.301
			c0,1.326-0.077,2.604-0.203,3.881c-0.464,5.596-2.011,10.901-4.369,15.771h226.648l1.817-0.129
			c-2.015-4.226-3.415-8.813-4.028-13.684c-0.271-2.014-0.394-3.881-0.394-5.675c0-24.886,20.268-45.152,45.153-45.152
			c24.91,0,45.177,20.242,45.177,45.152c0,1.303-0.073,2.58-0.196,3.857c-0.295,3.685-1.105,7.229-2.285,10.618l5.11-0.301
			l35.13-4.637c6.092-0.811,11.497-4.422,14.567-9.753l3.513-6.019c2.408-4.176,3.611-8.948,3.489-13.764L999.844,164.508z
			 M875.465,119.555H703.599c0,0,1.032-4.078-3.464-8.995c0,0,43.928-28.325,111.776-21.25c18.671,1.944,41.493,3.271,72.544,19.407
			L875.465,119.555z M875.465,119.555"/>
	</g>
</g>
</svg>
