<?xml version="1.0" encoding="utf-8"?>
<!-- Generator: Adobe Illustrator 16.0.0, SVG Export Plug-In . SVG Version: 6.00 Build 0)  -->
<!DOCTYPE svg PUBLIC "-//W3C//DTD SVG 1.1//EN" "http://www.w3.org/Graphics/SVG/1.1/DTD/svg11.dtd">
<svg version="1.1" id="Calque_1" xmlns="http://www.w3.org/2000/svg" xmlns:xlink="http://www.w3.org/1999/xlink" x="0px" y="0px"
	 width="1000px" height="227.963px" viewBox="0 0 1000 227.963" enable-background="new 0 0 1000 227.963" xml:space="preserve">
<g>
	<path fill="#BABABA" d="M89.599,148.367c-21.956,0-39.783,17.803-39.783,39.785c0,1.722,0.126,3.369,0.344,5.017
		c2.48,19.622,19.183,34.794,39.438,34.794c20.855,0,37.92-16.008,39.638-36.417c0.102-1.131,0.178-2.237,0.178-3.394
		C129.416,166.17,111.588,148.367,89.599,148.367L89.599,148.367z M69.682,173.178l8.114,8.114
		c-0.636,1.082-1.125,2.263-1.447,3.492H64.911C65.501,180.456,67.152,176.497,69.682,173.178L69.682,173.178z M64.868,191.669H76.4
		c0.32,1.229,0.812,2.409,1.448,3.467l-8.14,8.14C67.201,199.955,65.477,195.996,64.868,191.669L64.868,191.669z M86.163,212.89
		c-4.307-0.59-8.241-2.287-11.539-4.771l8.096-8.114c1.057,0.639,2.21,1.082,3.443,1.401V212.89z M86.163,174.924
		c-1.261,0.319-2.41,0.836-3.52,1.475l-8.09-8.114c3.319-2.532,7.278-4.205,11.609-4.819V174.924z M93.069,163.465
		c4.331,0.614,8.29,2.287,11.631,4.819l-8.114,8.114c-1.082-0.639-2.266-1.155-3.517-1.475V163.465z M93.069,212.89v-11.483
		c1.227-0.319,2.385-0.787,3.442-1.401l8.09,8.114C101.307,210.603,97.373,212.3,93.069,212.89L93.069,212.89z M109.541,203.275
		l-8.164-8.14c0.642-1.082,1.159-2.213,1.503-3.467h11.434C113.697,195.996,112.08,199.98,109.541,203.275L109.541,203.275z
		 M102.88,184.784c-0.32-1.229-0.811-2.41-1.454-3.492l8.114-8.114c2.539,3.319,4.181,7.278,4.773,11.606H102.88z M102.88,184.784"
		/>
	<g>
		<path fill="#BABABA" d="M376.487,148.367c-21.983,0-39.811,17.803-39.811,39.785c0,1.722,0.147,3.369,0.345,5.017
			c2.459,19.622,19.18,34.794,39.466,34.794c20.827,0,37.893-16.008,39.613-36.417c0.099-1.131,0.173-2.237,0.173-3.394
			C416.273,166.17,398.471,148.367,376.487,148.367L376.487,148.367z M356.545,173.178l8.115,8.114
			c-0.64,1.082-1.132,2.263-1.451,3.492h-11.434C352.365,180.456,354.037,176.497,356.545,173.178L356.545,173.178z M351.75,191.669
			h11.508c0.32,1.229,0.812,2.409,1.451,3.467l-8.139,8.14C354.062,199.955,352.341,195.996,351.75,191.669L351.75,191.669z
			 M373.021,212.89c-4.304-0.59-8.213-2.287-11.532-4.771l8.09-8.114c1.057,0.639,2.237,1.082,3.442,1.401V212.89z M373.021,174.924
			c-1.255,0.319-2.41,0.836-3.517,1.475l-8.09-8.114c3.319-2.532,7.278-4.205,11.631-4.819v11.459H373.021z M379.905,163.465
			c4.353,0.614,8.312,2.287,11.631,4.819l-8.09,8.114c-1.082-0.639-2.263-1.155-3.517-1.475v-11.459H379.905z M379.905,212.89
			v-11.483c1.229-0.319,2.409-0.787,3.467-1.401l8.09,8.114C388.167,210.603,384.232,212.3,379.905,212.89L379.905,212.89z
			 M396.404,203.275l-8.163-8.14c0.64-1.082,1.155-2.213,1.5-3.467h11.434C400.561,195.996,398.938,199.98,396.404,203.275
			L396.404,203.275z M389.741,184.784c-0.319-1.229-0.812-2.41-1.451-3.492l8.14-8.114c2.508,3.319,4.155,7.278,4.745,11.606
			H389.741z M389.741,184.784"/>
		<path fill="#BABABA" d="M493.509,159.653h-7.845l-2.016-47.187c-0.129-2.902-2.533-5.186-5.459-5.161l-108.439,0.98V69.115
			c0-3.664-2.951-6.618-6.615-6.618h-5.163c-3.64,0-6.591,2.954-6.591,6.618v39.343l-14.408,0.126l-2.878-34.674
			c-0.614-7.251-6.688-12.836-13.967-12.836H188.406c-4.601,0-9.003,1.771-12.319,4.967l-44.243,42.441l-84.658,8.926
			c-11.729,1.227-22.475,7.158-29.775,16.422l-8.708,11.044c-6.64,4.106-9.959,11.95-8.266,19.573l2.606,11.853
			c1.135,5.139,5.17,9.146,10.307,10.254l28.893,6.295c-0.169-1.623-0.32-3.222-0.32-4.697c0-26.286,21.396-47.679,47.676-47.679
			c26.314,0,47.704,21.393,47.704,47.679c0,1.377-0.071,2.705-0.197,4.058c-0.025,0.344-0.092,0.688-0.117,1.032h192.139
			c-0.196-1.795-0.345-3.491-0.345-5.09c0-26.286,21.394-47.679,47.704-47.679s47.704,21.393,47.704,47.679
			c0,1.377-0.099,2.705-0.197,4.058c-0.049,0.344-0.123,0.688-0.147,1.032h24.221l21.934-12.098h23.532
			c3.565,0,6.467-2.901,6.467-6.491v-8.533C500,162.555,497.099,159.653,493.509,159.653L493.509,159.653z M166.542,111.064
			c0,0,2.8-6.787,0-14.554l17.456-21.642c1.014-1.229,2.511-1.964,4.085-1.964h52.256v38.16H166.542z M259.663,111.064V72.93h47.408
			c2.828,0,5.14,2.21,5.237,5.01l1.377,33.125H259.663z M259.663,111.064"/>
	</g>
</g>
<g>
	<path fill="#D90000" d="M589.6,148.367c-21.956,0-39.783,17.803-39.783,39.785c0,1.722,0.126,3.369,0.344,5.017
		c2.48,19.622,19.184,34.794,39.439,34.794c20.854,0,37.92-16.008,39.638-36.417c0.102-1.131,0.179-2.237,0.179-3.394
		C629.416,166.17,611.588,148.367,589.6,148.367L589.6,148.367z M569.682,173.178l8.114,8.114c-0.636,1.082-1.125,2.263-1.447,3.492
		h-11.438C565.502,180.456,567.152,176.497,569.682,173.178L569.682,173.178z M564.868,191.669H576.4
		c0.32,1.229,0.812,2.409,1.448,3.467l-8.14,8.14C567.201,199.955,565.477,195.996,564.868,191.669L564.868,191.669z
		 M586.163,212.89c-4.307-0.59-8.241-2.287-11.539-4.771l8.097-8.114c1.057,0.639,2.209,1.082,3.442,1.401V212.89z M586.163,174.924
		c-1.261,0.319-2.41,0.836-3.52,1.475l-8.09-8.114c3.319-2.532,7.278-4.205,11.609-4.819V174.924z M593.069,163.465
		c4.331,0.614,8.29,2.287,11.631,4.819l-8.114,8.114c-1.082-0.639-2.266-1.155-3.517-1.475V163.465z M593.069,212.89v-11.483
		c1.227-0.319,2.386-0.787,3.442-1.401l8.09,8.114C601.307,210.603,597.373,212.3,593.069,212.89L593.069,212.89z M609.541,203.275
		l-8.164-8.14c0.643-1.082,1.159-2.213,1.504-3.467h11.434C613.697,195.996,612.08,199.98,609.541,203.275L609.541,203.275z
		 M602.881,184.784c-0.32-1.229-0.812-2.41-1.454-3.492l8.114-8.114c2.539,3.319,4.181,7.278,4.773,11.606H602.881z
		 M602.881,184.784"/>
	<g>
		<path fill="#D90000" d="M876.487,148.367c-21.983,0-39.811,17.803-39.811,39.785c0,1.722,0.147,3.369,0.345,5.017
			c2.459,19.622,19.18,34.794,39.466,34.794c20.827,0,37.893-16.008,39.613-36.417c0.099-1.131,0.173-2.237,0.173-3.394
			C916.273,166.17,898.471,148.367,876.487,148.367L876.487,148.367z M856.545,173.178l8.115,8.114
			c-0.64,1.082-1.132,2.263-1.451,3.492h-11.434C852.365,180.456,854.037,176.497,856.545,173.178L856.545,173.178z M851.75,191.669
			h11.508c0.32,1.229,0.812,2.409,1.451,3.467l-8.139,8.14C854.062,199.955,852.341,195.996,851.75,191.669L851.75,191.669z
			 M873.021,212.89c-4.304-0.59-8.213-2.287-11.532-4.771l8.09-8.114c1.057,0.639,2.237,1.082,3.442,1.401V212.89z M873.021,174.924
			c-1.255,0.319-2.41,0.836-3.517,1.475l-8.09-8.114c3.319-2.532,7.278-4.205,11.631-4.819v11.459H873.021z M879.905,163.465
			c4.353,0.614,8.312,2.287,11.631,4.819l-8.09,8.114c-1.082-0.639-2.263-1.155-3.517-1.475v-11.459H879.905z M879.905,212.89
			v-11.483c1.229-0.319,2.409-0.787,3.467-1.401l8.09,8.114C888.167,210.603,884.232,212.3,879.905,212.89L879.905,212.89z
			 M896.404,203.275l-8.163-8.14c0.64-1.082,1.155-2.213,1.5-3.467h11.434C900.561,195.996,898.938,199.98,896.404,203.275
			L896.404,203.275z M889.741,184.784c-0.319-1.229-0.812-2.41-1.451-3.492l8.14-8.114c2.508,3.319,4.155,7.278,4.745,11.606
			H889.741z M889.741,184.784"/>
		<path fill="#D90000" d="M993.509,159.653h-7.845l-2.016-47.187c-0.129-2.902-2.533-5.186-5.459-5.161l-108.439,0.98V69.115
			c0-3.664-2.951-6.618-6.615-6.618h-5.163c-3.64,0-6.591,2.954-6.591,6.618v39.343l-14.408,0.126l-2.878-34.674
			c-0.614-7.251-6.688-12.836-13.967-12.836H688.406c-4.602,0-9.004,1.771-12.32,4.967l-44.242,42.441l-84.658,8.926
			c-11.729,1.227-22.475,7.158-29.775,16.422l-8.707,11.044c-6.64,4.106-9.959,11.95-8.266,19.573l2.606,11.853
			c1.135,5.139,5.17,9.146,10.307,10.254l28.893,6.295c-0.169-1.623-0.319-3.222-0.319-4.697c0-26.286,21.396-47.679,47.676-47.679
			c26.313,0,47.703,21.393,47.703,47.679c0,1.377-0.07,2.705-0.197,4.058c-0.024,0.344-0.092,0.688-0.116,1.032h192.139
			c-0.196-1.795-0.345-3.491-0.345-5.09c0-26.286,21.394-47.679,47.704-47.679s47.704,21.393,47.704,47.679
			c0,1.377-0.099,2.705-0.197,4.058c-0.049,0.344-0.123,0.688-0.147,1.032h24.221l21.934-12.098h23.532
			c3.565,0,6.467-2.901,6.467-6.491v-8.533C1000,162.555,997.099,159.653,993.509,159.653L993.509,159.653z M666.543,111.064
			c0,0,2.8-6.787,0-14.554l17.455-21.642c1.014-1.229,2.512-1.964,4.085-1.964h52.256v38.16H666.543z M759.663,111.064V72.93h47.408
			c2.828,0,5.14,2.21,5.237,5.01l1.377,33.125H759.663z M759.663,111.064"/>
	</g>
</g>
</svg>
