<?xml version="1.0" encoding="utf-8"?>
<!-- Generator: Adobe Illustrator 16.0.0, SVG Export Plug-In . SVG Version: 6.00 Build 0)  -->
<!DOCTYPE svg PUBLIC "-//W3C//DTD SVG 1.1//EN" "http://www.w3.org/Graphics/SVG/1.1/DTD/svg11.dtd">
<svg version="1.1" id="Calque_1" xmlns="http://www.w3.org/2000/svg" xmlns:xlink="http://www.w3.org/1999/xlink" x="0px" y="0px"
	 width="1000px" height="227.963px" viewBox="0 0 1000 227.963" enable-background="new 0 0 1000 227.963" xml:space="preserve">
<g>
	<path fill="#BABABA" d="M93.358,151.376c-21.147,0.19-38.111,17.501-37.918,38.648c0,1.639,0.15,3.241,0.371,4.807
		c2.554,18.857,18.757,33.326,38.28,33.13c20.061-0.203,36.315-15.739,37.786-35.383c0.101-1.08,0.15-2.161,0.15-3.271
		C131.834,168.146,114.521,151.18,93.358,151.376L93.358,151.376z M90.19,165.937l0.092,11.019
		c-1.175,0.319-2.305,0.811-3.361,1.455l-7.882-7.74C82.232,168.221,86.017,166.575,90.19,165.937L90.19,165.937z M74.399,175.408
		l7.906,7.741c-0.614,1.056-1.08,2.179-1.375,3.389l-11,0.092C70.471,182.455,72.018,178.631,74.399,175.408L74.399,175.408z
		 M69.955,193.266l11.102-0.099c0.313,1.179,0.786,2.284,1.421,3.291l-7.783,7.906C72.263,201.196,70.572,197.409,69.955,193.266
		L69.955,193.266z M79.485,208.974l7.707-7.851c1.031,0.589,2.16,1.025,3.336,1.326l0.102,11.024
		C86.508,212.958,82.695,211.362,79.485,208.974L79.485,208.974z M117.471,186.194l-11,0.098c-0.319-1.209-0.81-2.308-1.427-3.363
		l7.731-7.882C115.233,178.238,116.854,182.02,117.471,186.194L117.471,186.194z M96.814,165.888
		c4.174,0.54,8.008,2.111,11.227,4.512l-7.713,7.882c-1.056-0.632-2.213-1.08-3.413-1.394L96.814,165.888z M97.262,213.394
		l-0.101-11.024c1.182-0.313,2.308-0.762,3.312-1.394l7.857,7.729C105.163,211.141,101.409,212.811,97.262,213.394L97.262,213.394z
		 M113.044,204.045l-7.925-7.784c0.583-1.031,1.099-2.136,1.394-3.345l11-0.093C116.973,196.974,115.426,200.822,113.044,204.045
		L113.044,204.045z M113.044,204.045"/>
	<g>
		<path fill="#BABABA" d="M413.688,151.376c-21.141,0.19-38.132,17.501-37.937,38.648c0.025,1.639,0.172,3.241,0.394,4.807
			c2.554,18.857,18.759,33.326,38.28,33.13c20.035-0.203,36.315-15.739,37.788-35.383c0.099-1.08,0.147-2.161,0.147-3.271
			C452.165,168.146,434.854,151.18,413.688,151.376L413.688,151.376z M410.521,165.937l0.098,11.019
			c-1.203,0.319-2.308,0.811-3.363,1.455l-7.883-7.74C402.541,168.221,406.347,166.575,410.521,165.937L410.521,165.937z
			 M394.732,175.408l7.907,7.741c-0.614,1.056-1.081,2.179-1.375,3.389l-11.001,0.092
			C390.779,182.455,392.352,178.631,394.732,175.408L394.732,175.408z M390.289,193.266l11.098-0.099
			c0.295,1.179,0.786,2.284,1.4,3.291l-7.76,7.906C392.597,201.196,390.902,197.409,390.289,193.266L390.289,193.266z
			 M399.815,208.974l7.71-7.851c1.031,0.589,2.161,1.025,3.34,1.326l0.098,11.024C406.813,212.958,403.008,211.362,399.815,208.974
			L399.815,208.974z M437.801,186.194l-11.024,0.098c-0.319-1.209-0.786-2.308-1.399-3.363l7.734-7.882
			C435.566,178.238,437.188,182.02,437.801,186.194L437.801,186.194z M417.15,165.888c4.175,0.54,8.005,2.111,11.222,4.512
			l-7.71,7.882c-1.056-0.632-2.21-1.08-3.413-1.394L417.15,165.888z M417.593,213.394l-0.099-11.024
			c1.18-0.313,2.284-0.762,3.315-1.394l7.857,7.729C425.499,211.141,421.742,212.811,417.593,213.394L417.593,213.394z
			 M433.381,204.045l-7.931-7.784c0.589-1.031,1.104-2.136,1.399-3.345l11-0.093C437.31,196.974,435.763,200.822,433.381,204.045
			L433.381,204.045z M433.381,204.045"/>
		<path fill="#BABABA" d="M495.798,168.49l-4.592-1.7c0,0,0.073-109.309-23.892-142.285c-4.051-5.626-181.553-16.651-246.084,9.475
			c-26.513,10.755-107.695,65.56-107.695,65.56s-68.672,10.681-90.132,23.895c-9.555,7.482-15.325,22.928-15.325,22.928
			l-5.823,6.218C0.811,154.15,0,156.213,0,158.325v10.411c0,2.7,2.188,4.88,4.884,4.88v18.176c-0.878,0-1.691,0.516-2.06,1.302
			c-0.341,0.785-0.322,1.817,0.344,2.406c1.961,1.663,11.491,2.916,18.612,3.727c6.556,0.761,27.823,2.872,27.823,2.872
			c-0.567-2.038-1.056-4.094-1.354-6.236c-0.294-2.057-0.445-3.953-0.445-5.771c-0.246-25.309,20.159-46.112,45.477-46.358
			c25.533,0,46.165,20.405,46.383,45.505c0,1.32-0.049,2.646-0.15,3.947c-0.218,2.806-0.709,5.5-1.394,8.152l230.954-2.769
			c-0.172-0.915-0.369-1.793-0.491-2.707c-0.295-2.057-0.442-3.953-0.442-5.771c-0.245-25.309,20.159-46.112,45.475-46.358
			c25.536,0,46.137,20.405,46.383,45.505c0,1.32-0.074,2.646-0.172,3.947c-0.099,1.406-0.271,2.806-0.516,4.181l29.612-2.505
			c5.304-0.467,9.502-4.592,10.018-9.846l1.032-9.877C500.242,172.241,498.548,169.497,495.798,168.49L495.798,168.49z
			 M260.594,96.102c-0.393,2.458-2.529,4.251-5.01,4.251h-73.539v-8.45c0-5.476-3.828-10.19-9.184-11.319l0.685-8.444
			c0,0,33.246-25.659,89.405-26.518c1.497-0.028,2.922,0.614,3.928,1.765c0.958,1.132,1.4,2.652,1.154,4.125L260.594,96.102z
			 M260.594,96.102"/>
	</g>
</g>
<g>
	<path fill="#D90000" d="M593.357,151.376c-21.147,0.19-38.111,17.501-37.918,38.648c0,1.639,0.15,3.241,0.371,4.807
		c2.554,18.857,18.757,33.326,38.28,33.13c20.061-0.203,36.315-15.739,37.786-35.383c0.101-1.08,0.15-2.161,0.15-3.271
		C631.834,168.146,614.52,151.18,593.357,151.376L593.357,151.376z M590.189,165.937l0.093,11.019
		c-1.176,0.319-2.306,0.811-3.361,1.455l-7.882-7.74C582.231,168.221,586.016,166.575,590.189,165.937L590.189,165.937z
		 M574.398,175.408l7.906,7.741c-0.613,1.056-1.08,2.179-1.375,3.389l-11,0.092C570.47,182.455,572.017,178.631,574.398,175.408
		L574.398,175.408z M569.954,193.266l11.102-0.099c0.313,1.179,0.786,2.284,1.421,3.291l-7.783,7.906
		C572.263,201.196,570.571,197.409,569.954,193.266L569.954,193.266z M579.484,208.974l7.707-7.851
		c1.031,0.589,2.16,1.025,3.336,1.326l0.102,11.024C586.507,212.958,582.694,211.362,579.484,208.974L579.484,208.974z
		 M617.47,186.194l-11,0.098c-0.319-1.209-0.811-2.308-1.428-3.363l7.731-7.882C615.232,178.238,616.853,182.02,617.47,186.194
		L617.47,186.194z M596.813,165.888c4.174,0.54,8.008,2.111,11.228,4.512l-7.713,7.882c-1.057-0.632-2.214-1.08-3.413-1.394
		L596.813,165.888z M597.262,213.394l-0.102-11.024c1.182-0.313,2.309-0.762,3.312-1.394l7.857,7.729
		C605.162,211.141,601.408,212.811,597.262,213.394L597.262,213.394z M613.044,204.045l-7.925-7.784
		c0.583-1.031,1.099-2.136,1.394-3.345l11-0.093C616.973,196.974,615.426,200.822,613.044,204.045L613.044,204.045z
		 M613.044,204.045"/>
	<g>
		<path fill="#D90000" d="M913.688,151.376c-21.141,0.19-38.132,17.501-37.937,38.648c0.025,1.639,0.172,3.241,0.394,4.807
			c2.554,18.857,18.759,33.326,38.28,33.13c20.035-0.203,36.315-15.739,37.788-35.383c0.099-1.08,0.147-2.161,0.147-3.271
			C952.164,168.146,934.854,151.18,913.688,151.376L913.688,151.376z M910.521,165.937l0.098,11.019
			c-1.203,0.319-2.308,0.811-3.363,1.455l-7.883-7.74C902.54,168.221,906.346,166.575,910.521,165.937L910.521,165.937z
			 M894.731,175.408l7.907,7.741c-0.614,1.056-1.081,2.179-1.375,3.389l-11.001,0.092
			C890.778,182.455,892.351,178.631,894.731,175.408L894.731,175.408z M890.288,193.266l11.098-0.099
			c0.295,1.179,0.786,2.284,1.4,3.291l-7.76,7.906C892.596,201.196,890.901,197.409,890.288,193.266L890.288,193.266z
			 M899.814,208.974l7.71-7.851c1.031,0.589,2.161,1.025,3.34,1.326l0.098,11.024C906.813,212.958,903.007,211.362,899.814,208.974
			L899.814,208.974z M937.8,186.194l-11.024,0.098c-0.319-1.209-0.786-2.308-1.399-3.363l7.734-7.882
			C935.565,178.238,937.187,182.02,937.8,186.194L937.8,186.194z M917.149,165.888c4.175,0.54,8.005,2.111,11.222,4.512l-7.71,7.882
			c-1.056-0.632-2.21-1.08-3.413-1.394L917.149,165.888z M917.592,213.394l-0.099-11.024c1.18-0.313,2.284-0.762,3.315-1.394
			l7.857,7.729C925.498,211.141,921.741,212.811,917.592,213.394L917.592,213.394z M933.38,204.045l-7.931-7.784
			c0.589-1.031,1.104-2.136,1.399-3.345l11-0.093C937.309,196.974,935.762,200.822,933.38,204.045L933.38,204.045z M933.38,204.045"
			/>
		<path fill="#D90000" d="M995.797,168.49l-4.592-1.7c0,0,0.073-109.309-23.892-142.285c-4.051-5.626-181.553-16.651-246.084,9.475
			c-26.513,10.755-107.694,65.56-107.694,65.56s-68.672,10.681-90.133,23.895c-9.555,7.482-15.324,22.928-15.324,22.928
			l-5.823,6.218c-1.445,1.571-2.255,3.634-2.255,5.746v10.411c0,2.7,2.188,4.88,4.883,4.88v18.176c-0.878,0-1.691,0.516-2.06,1.302
			c-0.341,0.785-0.322,1.817,0.344,2.406c1.961,1.663,11.491,2.916,18.612,3.727c6.556,0.761,27.822,2.872,27.822,2.872
			c-0.567-2.038-1.056-4.094-1.354-6.236c-0.294-2.057-0.444-3.953-0.444-5.771c-0.246-25.309,20.158-46.112,45.477-46.358
			c25.533,0,46.165,20.405,46.383,45.505c0,1.32-0.049,2.646-0.15,3.947c-0.218,2.806-0.709,5.5-1.394,8.152l230.954-2.769
			c-0.172-0.915-0.369-1.793-0.491-2.707c-0.295-2.057-0.442-3.953-0.442-5.771c-0.245-25.309,20.159-46.112,45.475-46.358
			c25.536,0,46.137,20.405,46.383,45.505c0,1.32-0.074,2.646-0.172,3.947c-0.099,1.406-0.271,2.806-0.516,4.181l29.612-2.505
			c5.304-0.467,9.502-4.592,10.018-9.846l1.032-9.877C1000.241,172.241,998.547,169.497,995.797,168.49L995.797,168.49z
			 M760.593,96.102c-0.393,2.458-2.529,4.251-5.01,4.251h-73.539v-8.45c0-5.476-3.827-10.19-9.184-11.319l0.685-8.444
			c0,0,33.246-25.659,89.405-26.518c1.497-0.028,2.922,0.614,3.928,1.765c0.958,1.132,1.4,2.652,1.154,4.125L760.593,96.102z
			 M760.593,96.102"/>
	</g>
</g>
</svg>
