<?xml version="1.0" encoding="utf-8"?>
<!-- Generator: Adobe Illustrator 16.0.0, SVG Export Plug-In . SVG Version: 6.00 Build 0)  -->
<!DOCTYPE svg PUBLIC "-//W3C//DTD SVG 1.1//EN" "http://www.w3.org/Graphics/SVG/1.1/DTD/svg11.dtd">
<svg version="1.1" id="Calque_1" xmlns="http://www.w3.org/2000/svg" xmlns:xlink="http://www.w3.org/1999/xlink" x="0px" y="0px"
	 width="1000px" height="227.963px" viewBox="0 0 1000 227.963" enable-background="new 0 0 1000 227.963" xml:space="preserve">
<g>
	<path fill="#BABABA" d="M127.492,191.269c0-20.248-16.414-36.658-36.686-36.658c-20.254,0-36.667,16.41-36.667,36.658
		c0,1.576,0.126,3.11,0.32,4.613c2.267,18.086,17.67,32.081,36.347,32.081c19.195,0,34.915-14.759,36.517-33.56
		C127.418,193.362,127.492,192.328,127.492,191.269L127.492,191.269z M72.443,177.451l7.494,7.49
		c-0.591,1.011-1.035,2.07-1.331,3.229H68.061C68.603,184.172,70.13,180.525,72.443,177.451L72.443,177.451z M68.036,194.527h10.62
		c0.299,1.108,0.715,2.192,1.306,3.153l-7.493,7.509C70.155,202.141,68.578,198.494,68.036,194.527L68.036,194.527z M87.652,214.066
		c-3.967-0.542-7.595-2.119-10.647-4.41l7.444-7.467c0.983,0.567,2.067,0.986,3.203,1.281V214.066z M87.652,179.077
		c-1.161,0.296-2.245,0.765-3.255,1.355l-7.469-7.466c3.062-2.316,6.705-3.868,10.724-4.436V179.077z M93.979,168.531
		c4.019,0.567,7.663,2.095,10.725,4.436l-7.469,7.466c-1.01-0.591-2.094-1.06-3.255-1.355V168.531z M93.979,214.066v-10.596
		c1.136-0.295,2.221-0.714,3.178-1.281l7.469,7.467C101.574,211.947,97.946,213.5,93.979,214.066L93.979,214.066z M109.188,205.215
		l-7.519-7.534c0.567-0.985,1.06-2.021,1.355-3.153h10.546C113.004,198.494,111.501,202.165,109.188,205.215L109.188,205.215z
		 M103.025,188.17c-0.296-1.158-0.739-2.218-1.331-3.229l7.494-7.49c2.313,3.074,3.841,6.721,4.383,10.719H103.025z M103.025,188.17
		"/>
	<g>
		<path fill="#BABABA" d="M389.168,154.61c-20.254,0-36.664,16.41-36.664,36.658c0,1.576,0.123,3.11,0.32,4.613
			c2.267,18.086,17.667,32.081,36.344,32.081c19.194,0,34.915-14.759,36.517-33.56c0.073-1.041,0.147-2.075,0.147-3.11
			C425.858,171.021,409.422,154.61,389.168,154.61L389.168,154.61z M370.812,177.451l7.466,7.49
			c-0.566,1.011-1.011,2.07-1.331,3.229h-10.521C366.968,184.172,368.496,180.525,370.812,177.451L370.812,177.451z
			 M366.376,194.527h10.62c0.32,1.108,0.739,2.192,1.33,3.153l-7.49,7.509C368.52,202.141,366.944,198.494,366.376,194.527
			L366.376,194.527z M385.99,214.066c-3.967-0.542-7.589-2.119-10.62-4.41l7.441-7.467c0.986,0.567,2.07,0.986,3.179,1.281V214.066z
			 M385.99,179.077c-1.157,0.296-2.218,0.765-3.228,1.355l-7.466-7.466c3.056-2.316,6.702-3.868,10.693-4.436V179.077z
			 M392.347,168.531c3.991,0.567,7.639,2.095,10.718,4.436l-7.465,7.466c-1.011-0.591-2.095-1.06-3.253-1.355V168.531z
			 M392.347,214.066v-10.596c1.134-0.295,2.192-0.714,3.179-1.281l7.466,7.467C399.936,211.947,396.314,213.5,392.347,214.066
			L392.347,214.066z M407.55,205.215l-7.54-7.534c0.592-0.985,1.084-2.021,1.38-3.153h10.521
			C411.37,198.494,409.866,202.165,407.55,205.215L407.55,205.215z M401.39,188.17c-0.296-1.158-0.739-2.218-1.331-3.229
			l7.491-7.466c2.291,3.05,3.844,6.696,4.386,10.694H401.39z M401.39,188.17"/>
		<path fill="#BABABA" d="M492.336,147.735c-41.889-36.146-91.834-37.948-91.834-37.948l-28.877-9.064
			c-4.091-1.281-8.452,0.958-9.758,5.051l-2.292,7.191l-53.124,3.992l-1.084-10.589c-0.345-3.305-3.178-5.791-6.505-5.698
			l-3.499,0.102c-3.449,0.077-6.184,2.907-6.184,6.333v11.947l-79.735,3.622c1.746-5.837-2.095-9.508-2.095-9.508l33.039-15.649
			c2.027-0.933,3.333-2.957,3.382-5.196c0.043-2.221-1.161-4.291-3.153-5.325l-3.847-2.042c-2.636-1.383-5.716-1.553-8.479-0.493
			c-12.166,4.654-48.021,18.754-84.614,36.295c-54.081,3.791-114.15,14.288-128.614,23.605
			c-14.439,9.313-15.847,20.845-14.787,32.771c1.577,17.347,14.661,31.416,31.835,34.225l23.679,3.838h0.764
			c-3.797-5.39-6.357-11.723-7.223-18.652c-0.218-1.719-0.363-3.468-0.363-5.248c0-23.082,18.77-41.829,41.838-41.829
			c23.088,0,41.857,18.747,41.857,41.829c0,1.188-0.093,2.365-0.169,3.529c-0.619,7.238-3.154,13.971-7.019,19.688l224.393-2.267
			l3.08-0.099c-2.711-4.706-4.559-9.955-5.273-15.604c-0.221-1.719-0.369-3.468-0.369-5.248c0-23.082,18.775-41.829,41.863-41.829
			c23.063,0,41.839,18.747,41.839,41.829c0,1.188-0.074,2.365-0.173,3.529c-0.419,5.119-1.823,9.979-3.967,14.39l51.621-2.021
			l3.449-3.794c8.797-9.684,14.857-21.486,17.568-34.274C501.206,161.238,498.447,153.009,492.336,147.735L492.336,147.735z
			 M492.336,147.735"/>
	</g>
</g>
<g>
	<path fill="#D90000" d="M627.492,191.269c0-20.248-16.414-36.658-36.687-36.658c-20.254,0-36.667,16.41-36.667,36.658
		c0,1.576,0.126,3.11,0.32,4.613c2.267,18.086,17.67,32.081,36.347,32.081c19.195,0,34.915-14.759,36.517-33.56
		C627.418,193.362,627.492,192.328,627.492,191.269L627.492,191.269z M572.443,177.451l7.493,7.49
		c-0.591,1.011-1.035,2.07-1.33,3.229h-10.546C568.603,184.172,570.13,180.525,572.443,177.451L572.443,177.451z M568.035,194.527
		h10.62c0.299,1.108,0.715,2.192,1.306,3.153l-7.493,7.509C570.154,202.141,568.578,198.494,568.035,194.527L568.035,194.527z
		 M587.652,214.066c-3.967-0.542-7.596-2.119-10.647-4.41l7.444-7.467c0.982,0.567,2.066,0.986,3.203,1.281V214.066z
		 M587.652,179.077c-1.161,0.296-2.245,0.765-3.256,1.355l-7.469-7.466c3.062-2.316,6.705-3.868,10.725-4.436V179.077z
		 M593.979,168.531c4.02,0.567,7.663,2.095,10.725,4.436l-7.469,7.466c-1.011-0.591-2.095-1.06-3.256-1.355V168.531z
		 M593.979,214.066v-10.596c1.137-0.295,2.221-0.714,3.179-1.281l7.469,7.467C601.573,211.947,597.945,213.5,593.979,214.066
		L593.979,214.066z M609.188,205.215l-7.519-7.534c0.567-0.985,1.06-2.021,1.355-3.153h10.546
		C613.004,198.494,611.501,202.165,609.188,205.215L609.188,205.215z M603.024,188.17c-0.296-1.158-0.739-2.218-1.331-3.229
		l7.494-7.49c2.313,3.074,3.841,6.721,4.383,10.719H603.024z M603.024,188.17"/>
	<g>
		<path fill="#D90000" d="M889.168,154.61c-20.254,0-36.664,16.41-36.664,36.658c0,1.576,0.123,3.11,0.32,4.613
			c2.267,18.086,17.667,32.081,36.344,32.081c19.194,0,34.915-14.759,36.517-33.56c0.073-1.041,0.147-2.075,0.147-3.11
			C925.857,171.021,909.422,154.61,889.168,154.61L889.168,154.61z M870.812,177.451l7.466,7.49
			c-0.566,1.011-1.011,2.07-1.331,3.229h-10.521C866.968,184.172,868.495,180.525,870.812,177.451L870.812,177.451z
			 M866.376,194.527h10.62c0.32,1.108,0.739,2.192,1.33,3.153l-7.49,7.509C868.52,202.141,866.943,198.494,866.376,194.527
			L866.376,194.527z M885.989,214.066c-3.967-0.542-7.589-2.119-10.62-4.41l7.441-7.467c0.986,0.567,2.07,0.986,3.179,1.281V214.066
			z M885.989,179.077c-1.157,0.296-2.218,0.765-3.228,1.355l-7.466-7.466c3.056-2.316,6.702-3.868,10.693-4.436V179.077z
			 M892.347,168.531c3.991,0.567,7.639,2.095,10.718,4.436l-7.465,7.466c-1.011-0.591-2.095-1.06-3.253-1.355V168.531z
			 M892.347,214.066v-10.596c1.134-0.295,2.192-0.714,3.179-1.281l7.466,7.467C899.936,211.947,896.313,213.5,892.347,214.066
			L892.347,214.066z M907.55,205.215l-7.54-7.534c0.592-0.985,1.084-2.021,1.38-3.153h10.521
			C911.369,198.494,909.865,202.165,907.55,205.215L907.55,205.215z M901.39,188.17c-0.296-1.158-0.739-2.218-1.331-3.229
			l7.491-7.466c2.291,3.05,3.844,6.696,4.386,10.694H901.39z M901.39,188.17"/>
		<path fill="#D90000" d="M992.336,147.735c-41.889-36.146-91.834-37.948-91.834-37.948l-28.877-9.064
			c-4.091-1.281-8.452,0.958-9.758,5.051l-2.292,7.191l-53.124,3.992l-1.084-10.589c-0.345-3.305-3.178-5.791-6.505-5.698
			l-3.499,0.102c-3.449,0.077-6.184,2.907-6.184,6.333v11.947l-79.735,3.622c1.746-5.837-2.095-9.508-2.095-9.508l33.039-15.649
			c2.027-0.933,3.333-2.957,3.382-5.196c0.044-2.221-1.161-4.291-3.153-5.325l-3.847-2.042c-2.637-1.383-5.717-1.553-8.479-0.493
			c-12.166,4.654-48.021,18.754-84.614,36.295c-54.081,3.791-114.15,14.288-128.614,23.605
			c-14.438,9.313-15.846,20.845-14.787,32.771c1.577,17.347,14.661,31.416,31.834,34.225l23.679,3.838h0.765
			c-3.798-5.39-6.357-11.723-7.223-18.652c-0.219-1.719-0.363-3.468-0.363-5.248c0-23.082,18.77-41.829,41.838-41.829
			c23.088,0,41.857,18.747,41.857,41.829c0,1.188-0.093,2.365-0.169,3.529c-0.619,7.238-3.154,13.971-7.02,19.688l224.393-2.267
			l3.08-0.099c-2.711-4.706-4.559-9.955-5.273-15.604c-0.221-1.719-0.369-3.468-0.369-5.248c0-23.082,18.775-41.829,41.863-41.829
			c23.063,0,41.839,18.747,41.839,41.829c0,1.188-0.074,2.365-0.173,3.529c-0.419,5.119-1.823,9.979-3.967,14.39l51.621-2.021
			l3.449-3.794c8.797-9.684,14.857-21.486,17.568-34.274C1001.206,161.238,998.446,153.009,992.336,147.735L992.336,147.735z
			 M992.336,147.735"/>
	</g>
</g>
</svg>
