<?xml version="1.0" encoding="utf-8"?>
<!-- Generator: Adobe Illustrator 16.0.0, SVG Export Plug-In . SVG Version: 6.00 Build 0)  -->
<!DOCTYPE svg PUBLIC "-//W3C//DTD SVG 1.1//EN" "http://www.w3.org/Graphics/SVG/1.1/DTD/svg11.dtd">
<svg version="1.1" id="Calque_1" xmlns="http://www.w3.org/2000/svg" xmlns:xlink="http://www.w3.org/1999/xlink" x="0px" y="0px"
	 width="1000px" height="227.963px" viewBox="0 0 1000 227.963" enable-background="new 0 0 1000 227.963" xml:space="preserve">
<g>
	<path fill="#BABABA" d="M399.307,179.681c0,1.83,0.148,3.611,0.371,5.367c2.646,21.025,20.556,37.301,42.298,37.301
		c22.312,0,40.616-17.166,42.472-39.033c0.099-1.188,0.173-2.398,0.173-3.635c0-23.549-19.096-42.645-42.645-42.645
		C418.403,137.036,399.307,156.132,399.307,179.681L399.307,179.681z M468.444,176.069h-12.27c-0.346-1.336-0.865-2.598-1.533-3.76
		l8.682-8.707C466.02,167.188,467.8,171.419,468.444,176.069L468.444,176.069z M463.323,195.907l-8.756-8.758
		c0.692-1.162,1.262-2.373,1.607-3.709h12.244C467.776,188.065,466.02,192.345,463.323,195.907L463.323,195.907z M445.663,193.878
		c1.311-0.346,2.547-0.842,3.686-1.508l8.682,8.682c-3.562,2.672-7.742,4.477-12.367,5.119V193.878z M445.663,153.212
		c4.649,0.645,8.88,2.449,12.467,5.17l-8.707,8.684c-1.163-0.693-2.425-1.213-3.76-1.559V153.212z M420.605,163.603l8.707,8.707
		c-0.692,1.162-1.212,2.424-1.559,3.76h-12.269C416.127,171.419,417.909,167.188,420.605,163.603L420.605,163.603z M438.266,165.507
		c-1.336,0.346-2.598,0.865-3.76,1.559l-8.707-8.684c3.587-2.721,7.816-4.502,12.467-5.17V165.507z M425.898,201.052l8.657-8.682
		c1.139,0.666,2.4,1.162,3.711,1.508v12.293C433.666,205.528,429.436,203.724,425.898,201.052L425.898,201.052z M415.459,183.44
		h12.344c0.346,1.311,0.865,2.572,1.533,3.709l-8.707,8.707C417.933,192.319,416.103,188.065,415.459,183.44L415.459,183.44z
		 M415.459,183.44"/>
	<g>
		<path fill="#BABABA" d="M46.599,179.681c0,1.83,0.151,3.611,0.374,5.367c2.646,21.025,20.555,37.301,42.273,37.301
			c22.336,0,40.641-17.166,42.496-39.033c0.099-1.188,0.173-2.398,0.173-3.635c0-23.549-19.096-42.645-42.645-42.645
			C65.698,137.036,46.599,156.132,46.599,179.681L46.599,179.681z M115.738,176.069h-12.269c-0.346-1.336-0.866-2.598-1.534-3.76
			l8.682-8.707C113.314,167.188,115.095,171.419,115.738,176.069L115.738,176.069z M110.618,195.907l-8.756-8.758
			c0.693-1.162,1.262-2.373,1.608-3.709h12.244C115.07,188.065,113.314,192.345,110.618,195.907L110.618,195.907z M92.957,193.878
			c1.311-0.346,2.548-0.842,3.686-1.508l8.683,8.682c-3.563,2.672-7.768,4.477-12.393,5.119v-12.293H92.957z M92.957,153.212
			c4.65,0.645,8.88,2.449,12.442,5.17l-8.683,8.684c-1.162-0.693-2.424-1.213-3.784-1.559v-12.295H92.957z M67.875,163.603
			l8.732,8.707c-0.693,1.162-1.212,2.424-1.558,3.76h-12.27C63.422,171.419,65.203,167.188,67.875,163.603L67.875,163.603z
			 M85.561,165.507c-1.335,0.346-2.597,0.865-3.76,1.559l-8.707-8.684c3.586-2.721,7.816-4.502,12.466-5.17V165.507z
			 M73.193,201.052l8.657-8.682c1.138,0.666,2.399,1.162,3.71,1.508v12.293C80.935,205.528,76.73,203.724,73.193,201.052
			L73.193,201.052z M62.73,183.44h12.367c0.347,1.311,0.866,2.572,1.534,3.709l-8.732,8.707
			C65.228,192.319,63.397,188.065,62.73,183.44L62.73,183.44z M62.73,183.44"/>
		<path fill="#BABABA" d="M3.089,189.499l34.191-0.543c-0.154-0.865-0.35-1.732-0.451-2.623c-0.315-2.398-0.467-4.576-0.467-6.652
			c0-29.164,23.721-52.885,52.885-52.885c29.188,0,52.909,23.746,52.909,52.885c0,1.533-0.099,3.018-0.223,4.525
			c-0.099,1.039-0.272,2.078-0.42,3.117l247.727-3.883c-0.099-1.287-0.148-2.549-0.148-3.736c0-29.162,23.722-52.908,52.885-52.908
			c26.566,0,48.557,19.713,52.267,45.291c2.969-6.506,5.813-15.361,4.7-24.043c-2.103-16.5-16.499-32.529-17.34-40.592
			c-0.866-8.058,2.696-14.662,0.569-26.096c-2.109-11.428-21.941-49.125-42.051-61.932c-14.594-9.276-25.107-15.609-69.458-18.156
			c-62.458-3.593-105.324,0.495-142.972,11.941c-22.386,6.808-98.992,46.645-122.219,59.52C77.967,87.96,66.861,90.31,47.867,97.186
			c-21.943,7.972-35.892,25.405-41.389,38.588C0.961,148.958-3.064,165.382,3.089,189.499L3.089,189.499z M354.461,72.432
			l-6.555-55.711c36.361,0.625,74.108,3.494,77.423,16.221c1.954,7.581-7.989,25.602-19.888,30.9
			C396.241,67.956,381.967,69.483,354.461,72.432L354.461,72.432z M176.984,64.189l4.155-12.146
			c49.199-26.417,74.306-35.514,135.279-35.514h8.633l-7,59.415c-63.967,5.658-139.46,10.302-139.46,10.302
			C184.676,73.792,176.984,64.189,176.984,64.189L176.984,64.189z M176.984,64.189"/>
	</g>
</g>
<g>
	<path fill="#D90000" d="M900.118,179.681c0,1.83,0.148,3.611,0.371,5.367c2.646,21.025,20.556,37.301,42.298,37.301
		c22.312,0,40.616-17.166,42.472-39.033c0.099-1.188,0.173-2.398,0.173-3.635c0-23.549-19.096-42.645-42.645-42.645
		C919.214,137.036,900.118,156.132,900.118,179.681L900.118,179.681z M969.255,176.069h-12.27c-0.346-1.336-0.865-2.598-1.533-3.76
		l8.682-8.707C966.831,167.188,968.611,171.419,969.255,176.069L969.255,176.069z M964.134,195.907l-8.756-8.758
		c0.692-1.162,1.262-2.373,1.607-3.709h12.244C968.587,188.065,966.831,192.345,964.134,195.907L964.134,195.907z M946.474,193.878
		c1.311-0.346,2.547-0.842,3.686-1.508l8.682,8.682c-3.562,2.672-7.742,4.477-12.367,5.119V193.878z M946.474,153.212
		c4.649,0.645,8.88,2.449,12.467,5.17l-8.707,8.684c-1.163-0.693-2.425-1.213-3.76-1.559V153.212z M921.416,163.603l8.707,8.707
		c-0.692,1.162-1.212,2.424-1.559,3.76h-12.269C916.938,171.419,918.72,167.188,921.416,163.603L921.416,163.603z M939.077,165.507
		c-1.336,0.346-2.598,0.865-3.76,1.559l-8.707-8.684c3.587-2.721,7.816-4.502,12.467-5.17V165.507z M926.709,201.052l8.657-8.682
		c1.139,0.666,2.4,1.162,3.711,1.508v12.293C934.477,205.528,930.247,203.724,926.709,201.052L926.709,201.052z M916.271,183.44
		h12.344c0.346,1.311,0.865,2.572,1.533,3.709l-8.707,8.707C918.744,192.319,916.914,188.065,916.271,183.44L916.271,183.44z
		 M916.271,183.44"/>
	<g>
		<path fill="#D90000" d="M547.41,179.681c0,1.83,0.151,3.611,0.374,5.367c2.646,21.025,20.555,37.301,42.273,37.301
			c22.336,0,40.641-17.166,42.495-39.033c0.1-1.188,0.174-2.398,0.174-3.635c0-23.549-19.097-42.645-42.645-42.645
			C566.509,137.036,547.41,156.132,547.41,179.681L547.41,179.681z M616.549,176.069H604.28c-0.347-1.336-0.866-2.598-1.534-3.76
			l8.683-8.707C614.125,167.188,615.906,171.419,616.549,176.069L616.549,176.069z M611.429,195.907l-8.757-8.758
			c0.693-1.162,1.262-2.373,1.608-3.709h12.244C615.881,188.065,614.125,192.345,611.429,195.907L611.429,195.907z M593.768,193.878
			c1.311-0.346,2.548-0.842,3.686-1.508l8.683,8.682c-3.563,2.672-7.768,4.477-12.393,5.119v-12.293H593.768z M593.768,153.212
			c4.65,0.645,8.88,2.449,12.442,5.17l-8.683,8.684c-1.162-0.693-2.424-1.213-3.784-1.559v-12.295H593.768z M568.686,163.603
			l8.731,8.707c-0.692,1.162-1.212,2.424-1.558,3.76h-12.27C564.233,171.419,566.014,167.188,568.686,163.603L568.686,163.603z
			 M586.371,165.507c-1.335,0.346-2.597,0.865-3.76,1.559l-8.706-8.684c3.586-2.721,7.816-4.502,12.466-5.17V165.507z
			 M574.004,201.052l8.657-8.682c1.138,0.666,2.399,1.162,3.71,1.508v12.293C581.746,205.528,577.541,203.724,574.004,201.052
			L574.004,201.052z M563.541,183.44h12.367c0.347,1.311,0.866,2.572,1.534,3.709l-8.732,8.707
			C566.039,192.319,564.208,188.065,563.541,183.44L563.541,183.44z M563.541,183.44"/>
		<path fill="#D90000" d="M503.899,189.499l34.191-0.543c-0.154-0.865-0.35-1.732-0.451-2.623c-0.315-2.398-0.467-4.576-0.467-6.652
			c0-29.164,23.721-52.885,52.885-52.885c29.188,0,52.909,23.746,52.909,52.885c0,1.533-0.099,3.018-0.223,4.525
			c-0.099,1.039-0.272,2.078-0.421,3.117l247.728-3.883c-0.099-1.287-0.148-2.549-0.148-3.736c0-29.162,23.722-52.908,52.885-52.908
			c26.566,0,48.557,19.713,52.267,45.291c2.969-6.506,5.813-15.361,4.7-24.043c-2.103-16.5-16.499-32.529-17.34-40.592
			c-0.866-8.058,2.696-14.662,0.569-26.096c-2.109-11.428-21.941-49.125-42.051-61.932c-14.594-9.276-25.107-15.609-69.458-18.156
			C809.017-2.325,766.15,1.763,728.503,13.209c-22.386,6.808-98.992,46.645-122.219,59.52
			c-27.507,15.231-38.612,17.581-57.606,24.457c-21.943,7.972-35.892,25.405-41.389,38.588
			C501.772,148.958,497.747,165.382,503.899,189.499L503.899,189.499z M855.272,72.432l-6.555-55.711
			c36.361,0.625,74.108,3.494,77.423,16.221c1.954,7.581-7.989,25.602-19.888,30.9C897.052,67.956,882.778,69.483,855.272,72.432
			L855.272,72.432z M677.795,64.189l4.155-12.146c49.199-26.417,74.306-35.514,135.279-35.514h8.633l-7,59.415
			c-63.967,5.658-139.46,10.302-139.46,10.302C685.487,73.792,677.795,64.189,677.795,64.189L677.795,64.189z M677.795,64.189"/>
	</g>
</g>
</svg>
