<?xml version="1.0" encoding="utf-8"?>
<!-- Generator: Adobe Illustrator 16.0.0, SVG Export Plug-In . SVG Version: 6.00 Build 0)  -->
<!DOCTYPE svg PUBLIC "-//W3C//DTD SVG 1.1//EN" "http://www.w3.org/Graphics/SVG/1.1/DTD/svg11.dtd">
<svg version="1.1" id="Calque_1" xmlns="http://www.w3.org/2000/svg" xmlns:xlink="http://www.w3.org/1999/xlink" x="0px" y="0px"
	 width="1000px" height="227.963px" viewBox="0 0 1000 227.963" enable-background="new 0 0 1000 227.963" xml:space="preserve">
<g>
	<path fill="#BABABA" d="M79.955,148.955c-21.82,0-39.489,17.669-39.489,39.495c0,1.705,0.121,3.36,0.343,4.991
		c2.446,19.447,19.028,34.521,39.146,34.521c20.68,0,37.632-15.89,39.333-36.128c0.103-1.111,0.177-2.255,0.177-3.385
		C119.465,166.624,101.771,148.955,79.955,148.955L79.955,148.955z M60.158,173.573l8.081,8.057c-0.64,1.081-1.14,2.248-1.43,3.478
		H55.441C56.028,180.813,57.687,176.885,60.158,173.573L60.158,173.573z M55.413,191.928h11.414
		c0.321,1.242,0.815,2.397,1.436,3.435l-8.077,8.087C57.711,200.163,56.01,196.233,55.413,191.928L55.413,191.928z M76.544,213.007
		c-4.278-0.587-8.179-2.268-11.469-4.764l8.034-8.031c1.063,0.618,2.218,1.088,3.435,1.384V213.007z M76.544,175.322
		c-1.267,0.327-2.425,0.815-3.512,1.464l-8.034-8.063c3.314-2.514,7.219-4.176,11.546-4.763V175.322z M83.39,163.961
		c4.293,0.587,8.223,2.249,11.537,4.763l-8.059,8.063c-1.081-0.648-2.245-1.137-3.478-1.464V163.961z M83.39,212.988v-11.393
		c1.208-0.321,2.372-0.766,3.407-1.384l8.056,8.031C91.541,210.715,87.658,212.395,83.39,212.988L83.39,212.988z M99.748,203.474
		l-8.111-8.111c0.646-1.063,1.165-2.192,1.486-3.435h11.345C103.847,196.233,102.241,200.188,99.748,203.474L99.748,203.474z
		 M93.123,185.107c-0.321-1.229-0.816-2.396-1.433-3.478l8.059-8.057c2.493,3.312,4.148,7.24,4.745,11.534H93.123z M93.123,185.107"
		/>
	<g>
		<path fill="#BABABA" d="M412.489,148.955c-21.796,0-39.488,17.669-39.488,39.495c0,1.705,0.123,3.36,0.346,4.991
			c2.446,19.447,19.027,34.521,39.143,34.521c20.683,0,37.635-15.89,39.34-36.128c0.099-1.111,0.173-2.255,0.173-3.385
			C452.002,166.624,434.309,148.955,412.489,148.955L412.489,148.955z M392.695,173.573l8.08,8.057
			c-0.642,1.081-1.137,2.248-1.433,3.478h-11.367C388.568,180.813,390.225,176.885,392.695,173.573L392.695,173.573z
			 M387.951,191.928h11.416c0.321,1.242,0.815,2.397,1.434,3.435l-8.08,8.087C390.249,200.163,388.544,196.233,387.951,191.928
			L387.951,191.928z M409.079,213.007c-4.275-0.587-8.18-2.268-11.466-4.764l8.031-8.031c1.063,0.618,2.224,1.088,3.435,1.384
			V213.007z M409.079,175.322c-1.235,0.327-2.422,0.815-3.484,1.464l-8.056-8.063c3.311-2.514,7.24-4.176,11.54-4.763V175.322z
			 M415.924,163.961c4.3,0.587,8.229,2.249,11.54,4.763l-8.056,8.063c-1.088-0.648-2.249-1.137-3.484-1.464V163.961z
			 M415.924,212.988v-11.393c1.211-0.321,2.372-0.766,3.41-1.384l8.056,8.031C424.078,210.715,420.199,212.395,415.924,212.988
			L415.924,212.988z M432.283,203.474l-8.105-8.111c0.643-1.063,1.161-2.192,1.482-3.435h11.342
			C436.385,196.233,434.778,200.188,432.283,203.474L432.283,203.474z M425.66,185.107c-0.321-1.229-0.791-2.396-1.434-3.478
			l8.057-8.057c2.495,3.312,4.15,7.24,4.744,11.534H425.66z M425.66,185.107"/>
		<path fill="#BABABA" d="M496.605,136.408l-7.586-7.265v-22.889c0.024-6.002-2.199-11.784-6.228-16.232l-28.071-31.084
			c-0.124-6.474-4.77-11.938-11.12-13.122c-33.36-6.252-136.899-22.462-218.82-0.469C174.147,58.963,122.68,86.34,122.68,86.34
			S33.3,97.71,11.897,125.634c-7.462,9.712-10.601,22.487-11.741,33.979c-1.582,16.062,8.995,30.734,24.742,34.299l8.247,1.854
			c-0.05-0.445-0.17-0.896-0.22-1.359c-0.271-2.101-0.417-4.059-0.417-5.955c0-26.145,21.298-47.446,47.446-47.446
			c26.163,0,47.47,21.302,47.47,47.446c0,1.358-0.102,2.687-0.229,4.046c-0.121,1.612-0.343,3.194-0.64,4.744l239.476,0.495
			c-0.198-1.106-0.42-2.193-0.568-3.33c-0.272-2.101-0.42-4.059-0.42-5.955c0-26.145,21.301-47.446,47.445-47.446
			c26.169,0,47.47,21.302,47.47,47.446c0,1.358-0.099,2.687-0.223,4.046c-0.148,1.829-0.444,3.639-0.814,5.442h3.262l13.641-7.463
			c14.208-7.783,23.277-22.462,23.895-38.647l0.272-7.093C500.115,141.616,498.879,138.583,496.605,136.408L496.605,136.408z
			 M169.776,89.556l3.657-14.657c0,0,55.479-29.008,148.316-25.845V92.32l-148.69,11.716
			C173.06,104.037,173.851,94.767,169.776,89.556L169.776,89.556z M408.017,85.5l-69.908,5.511v-41.07
			c22.981,1.683,47.964,5.316,74.776,11.787c2.718,0.646,4.893,2.668,5.758,5.313c0.858,2.668,0.296,5.584-1.508,7.71L408.017,85.5z
			 M408.017,85.5"/>
	</g>
</g>
<g>
	<path fill="#D90000" d="M579.955,148.955c-21.82,0-39.489,17.669-39.489,39.495c0,1.705,0.121,3.36,0.344,4.991
		c2.446,19.447,19.027,34.521,39.146,34.521c20.68,0,37.632-15.89,39.333-36.128c0.103-1.111,0.177-2.255,0.177-3.385
		C619.465,166.624,601.771,148.955,579.955,148.955L579.955,148.955z M560.158,173.573l8.08,8.057
		c-0.64,1.081-1.14,2.248-1.43,3.478h-11.367C556.028,180.813,557.687,176.885,560.158,173.573L560.158,173.573z M555.413,191.928
		h11.414c0.321,1.242,0.815,2.397,1.436,3.435l-8.077,8.087C557.712,200.163,556.01,196.233,555.413,191.928L555.413,191.928z
		 M576.545,213.007c-4.278-0.587-8.18-2.268-11.47-4.764l8.034-8.031c1.063,0.618,2.218,1.088,3.436,1.384V213.007z
		 M576.545,175.322c-1.267,0.327-2.425,0.815-3.513,1.464l-8.034-8.063c3.314-2.514,7.219-4.176,11.547-4.763V175.322z
		 M583.39,163.961c4.293,0.587,8.223,2.249,11.537,4.763l-8.06,8.063c-1.081-0.648-2.245-1.137-3.478-1.464V163.961z
		 M583.39,212.988v-11.393c1.208-0.321,2.372-0.766,3.407-1.384l8.056,8.031C591.541,210.715,587.658,212.395,583.39,212.988
		L583.39,212.988z M599.748,203.474l-8.111-8.111c0.646-1.063,1.165-2.192,1.486-3.435h11.345
		C603.848,196.233,602.241,200.188,599.748,203.474L599.748,203.474z M593.123,185.107c-0.321-1.229-0.816-2.396-1.434-3.478
		l8.059-8.057c2.493,3.312,4.148,7.24,4.745,11.534H593.123z M593.123,185.107"/>
	<g>
		<path fill="#D90000" d="M912.489,148.955c-21.796,0-39.488,17.669-39.488,39.495c0,1.705,0.123,3.36,0.346,4.991
			c2.446,19.447,19.027,34.521,39.143,34.521c20.683,0,37.635-15.89,39.34-36.128c0.099-1.111,0.173-2.255,0.173-3.385
			C952.002,166.624,934.309,148.955,912.489,148.955L912.489,148.955z M892.695,173.573l8.08,8.057
			c-0.642,1.081-1.137,2.248-1.433,3.478h-11.367C888.568,180.813,890.225,176.885,892.695,173.573L892.695,173.573z
			 M887.951,191.928h11.416c0.321,1.242,0.815,2.397,1.434,3.435l-8.08,8.087C890.249,200.163,888.544,196.233,887.951,191.928
			L887.951,191.928z M909.079,213.007c-4.275-0.587-8.18-2.268-11.466-4.764l8.031-8.031c1.063,0.618,2.224,1.088,3.435,1.384
			V213.007z M909.079,175.322c-1.235,0.327-2.422,0.815-3.484,1.464l-8.056-8.063c3.311-2.514,7.24-4.176,11.54-4.763V175.322z
			 M915.924,163.961c4.3,0.587,8.229,2.249,11.54,4.763l-8.056,8.063c-1.088-0.648-2.249-1.137-3.484-1.464V163.961z
			 M915.924,212.988v-11.393c1.211-0.321,2.372-0.766,3.41-1.384l8.056,8.031C924.078,210.715,920.199,212.395,915.924,212.988
			L915.924,212.988z M932.283,203.474l-8.105-8.111c0.643-1.063,1.161-2.192,1.482-3.435h11.342
			C936.385,196.233,934.778,200.188,932.283,203.474L932.283,203.474z M925.66,185.107c-0.321-1.229-0.791-2.396-1.434-3.478
			l8.057-8.057c2.495,3.312,4.15,7.24,4.744,11.534H925.66z M925.66,185.107"/>
		<path fill="#D90000" d="M996.605,136.408l-7.586-7.265v-22.889c0.024-6.002-2.199-11.784-6.228-16.232l-28.071-31.084
			c-0.124-6.474-4.77-11.938-11.12-13.122c-33.36-6.252-136.899-22.462-218.82-0.469C674.147,58.963,622.68,86.34,622.68,86.34
			s-89.38,11.37-110.782,39.293c-7.463,9.712-10.602,22.487-11.741,33.979c-1.582,16.062,8.995,30.734,24.742,34.299l8.247,1.854
			c-0.05-0.445-0.17-0.896-0.22-1.359c-0.271-2.101-0.417-4.059-0.417-5.955c0-26.145,21.299-47.446,47.446-47.446
			c26.162,0,47.47,21.302,47.47,47.446c0,1.358-0.102,2.687-0.229,4.046c-0.121,1.612-0.343,3.194-0.64,4.744l239.476,0.495
			c-0.198-1.106-0.42-2.193-0.568-3.33c-0.272-2.101-0.42-4.059-0.42-5.955c0-26.145,21.301-47.446,47.445-47.446
			c26.169,0,47.47,21.302,47.47,47.446c0,1.358-0.099,2.687-0.223,4.046c-0.148,1.829-0.444,3.639-0.814,5.442h3.262l13.641-7.463
			c14.208-7.783,23.277-22.462,23.895-38.647l0.272-7.093C1000.115,141.616,998.879,138.583,996.605,136.408L996.605,136.408z
			 M669.776,89.556l3.657-14.657c0,0,55.479-29.008,148.316-25.845V92.32l-148.69,11.716
			C673.06,104.037,673.851,94.767,669.776,89.556L669.776,89.556z M908.017,85.5l-69.908,5.511v-41.07
			c22.981,1.683,47.964,5.316,74.776,11.787c2.718,0.646,4.893,2.668,5.758,5.313c0.858,2.668,0.296,5.584-1.508,7.71L908.017,85.5z
			 M908.017,85.5"/>
	</g>
</g>
</svg>
